<svg xmlns="http://www.w3.org/2000/svg" xmlns:xlink="http://www.w3.org/1999/xlink" aria-hidden="true" role="img" class="iconify iconify--logos" width="31.88" height="32" preserveAspectRatio="xMidYMid meet" viewBox="0 0 256 257"><defs><linearGradient id="IconifyId1813088fe1fbc01fb466" x1="-.828%" x2="57.636%" y1="7.652%" y2="78.411%"><stop offset="0%" stop-color="#41D1FF"></stop><stop offset="100%" stop-color="#BD34FE"></stop></linearGradient><linearGradient id="IconifyId1813088fe1fbc01fb467" x1="43.376%" x2="50.316%" y1="2.242%" y2="89.03%"><stop offset="0%" stop-color="#FFEA83"></stop><stop offset="8.333%" stop-color="#FFDD35"></stop><stop offset="100%" stop-color="#FFA800"></stop></linearGradient></defs><path fill="url(#IconifyId1813088fe1fbc01fb466)" d="M255.153 37.938L134.897 252.97a12.5 12.5 0 0 1-23.72 0L.847 37.938a12.5 12.5 0 0 1 11.86-18.47l110.43 14.724l110.43-14.724a12.5 12.5 0 0 1 11.583 18.47z"></path><path fill="url(#IconifyId1813088fe1fbc01fb467)" d="M185.432.063L128 21.624L70.568.063A12.5 12.5 0 0 0 56 12.563v101.448a12.5 12.5 0 0 0 23.237 5.013l.013-.025L128 48.013l48.75 70.986l.013.025a12.5 12.5 0 0 0 23.237-5.013V12.563a12.5 12.5 0 0 0-14.568-12.5z"></path></svg>
